<svg xmlns="http://www.w3.org/2000/svg" viewBox="2.5 2.5 27 27"
     role="img" aria-label="solstone icon paused state">
  <title>solstone icon -- paused</title>
  <defs>
    <mask id="icko" maskUnits="userSpaceOnUse">
      <rect x="2.5" y="2.5" width="27.0" height="27.0" fill="white"/>
      <path d="M 8.50 21.50 A 4.5 4.5 0 0 1 12.02 18.00 A 5.2 5.2 0 0 1 21.35 13.65 A 4.0 4.0 0 0 1 26.91 18.89 C 28 22, 27.5 25.5, 23 25.5 C 20 28.8, 16 28.8, 13 25.5 C 10 26.5, 8 23.5, 8.50 21.50 Z" fill="black" stroke="black"
            stroke-width="4.4" stroke-linejoin="round"/>
    </mask>
  </defs>
  <g mask="url(#icko)">
    <path fill="#FFCF33" d="M16.0 2.5 L18.6 7.3 A9.1 9.1 0 0 0 13.4 7.3 Z M23.9 5.1 L23.2 10.5 A9.1 9.1 0 0 0 19.0 7.4 Z M28.8 11.8 L25.1 15.8 A9.1 9.1 0 0 0 23.5 10.9 Z M28.8 20.2 L23.5 21.1 A9.1 9.1 0 0 0 25.1 16.2 Z M23.9 26.9 L19.0 24.6 A9.1 9.1 0 0 0 23.2 21.5 Z M16.0 29.5 L13.4 24.7 A9.1 9.1 0 0 0 18.6 24.7 Z M8.1 26.9 L8.8 21.5 A9.1 9.1 0 0 0 13.0 24.6 Z M3.2 20.2 L6.9 16.2 A9.1 9.1 0 0 0 8.5 21.1 Z M3.2 11.8 L8.5 10.9 A9.1 9.1 0 0 0 6.9 15.8 Z M8.1 5.1 L13.0 7.4 A9.1 9.1 0 0 0 8.8 10.5 Z"/>
    <circle cx="16.0" cy="16.0" r="6.5" fill="none" stroke="#E8923A" stroke-width="1.7"/>
  </g>
  <path d="M 8.50 21.50 A 4.5 4.5 0 0 1 12.02 18.00 A 5.2 5.2 0 0 1 21.35 13.65 A 4.0 4.0 0 0 1 26.91 18.89 C 28 22, 27.5 25.5, 23 25.5 C 20 28.8, 16 28.8, 13 25.5 C 10 26.5, 8 23.5, 8.50 21.50 Z" fill="none" stroke="#999"
        stroke-width="1.4" stroke-linejoin="round"/>
</svg>
